<!DOCTYPE svg PUBLIC "-//W3C//DTD SVG 1.1//EN" "http://www.w3.org/Graphics/SVG/1.1/DTD/svg11.dtd">
<svg version="1.1" fill="#fefefe" d="Livello_1" xmlns="http://www.w3.org/2000/svg" xmlns:xlink="http://www.w3.org/1999/xlink" x="0px" y="0px"
  width="300px" height="90.722px" viewBox="0 0 300 90.722" enable-backgrounfill="inherit" xml:space="preserve">
  <g class="logo_horz__lettering">
    <path fill="inherit" d="M104.869,58.549L92.163,32.148v26.401h-2.298V26.786h2.073l12.706,26.583V26.922h2.343v31.627H104.869z"/>
    <path fill="inherit" d="M112.348,50.035V35.301c0-5.226,3.469-8.875,8.47-8.875c5,0,8.56,3.649,8.56,8.875v14.733c0,5.181-3.56,8.831-8.56,8.831
      C115.817,58.866,112.348,55.215,112.348,50.035z M127.036,50.081V35.212c0-4.011-2.614-6.489-6.218-6.489
      c-3.469,0-6.172,2.389-6.172,6.489v14.869c0,4.055,2.613,6.487,6.172,6.487C124.288,56.568,127.036,54.18,127.036,50.081z"/>
    <path fill="inherit" d="M142.49,26.786c5.722,0,8.74,3.379,8.74,10.047v10.679c0,7.884-2.839,11.037-8.695,11.037h-7.84V26.786h5.812H142.49z
      M142.49,29.084h-5.497v27.213h5.497c4.775,0,6.397-2.434,6.397-8.426V36.383C148.887,31.201,146.409,29.084,142.49,29.084z"/>
    <path fill="inherit" d="M155.826,50.035V35.301c0-5.226,3.469-8.875,8.471-8.875c5,0,8.56,3.649,8.56,8.875v14.733c0,5.181-3.56,8.831-8.56,8.831
      C159.295,58.866,155.826,55.215,155.826,50.035z M170.514,50.081V35.212c0-4.011-2.613-6.489-6.217-6.489
      c-3.471,0-6.173,2.389-6.173,6.489v14.869c0,4.055,2.613,6.487,6.173,6.487C167.766,56.568,170.514,54.18,170.514,50.081z"/>
    <path fill="inherit" d="M180.471,49.224v9.325h-2.342V26.786h7.568c5.046,0,8.335,3.109,8.335,8.696v5.226c0,5.587-3.289,8.517-8.335,8.517
      H180.471z M180.471,46.97h5.047c3.694,0,6.218-2.026,6.218-6.263v-5.226c0-4.505-2.568-6.397-6.218-6.397h-5.047V46.97z"/>
    <path fill="inherit" d="M201.286,26.786v31.763h-2.343V26.786H201.286z"/>
    <path fill="inherit" d="M220.704,50.53h-11.038l-2.208,8.02h-2.433l8.921-31.763h2.568l8.785,31.763h-2.433L220.704,50.53z M210.207,48.458h10.002
      l-4.956-18.248L210.207,48.458z"/>
    <path fill="inherit" d="M244.088,58.549l-12.706-26.401v26.401h-2.297V26.786h2.072l12.705,26.583V26.922h2.343v31.627H244.088z"/>
    <path fill="inherit" d="M251.566,50.035V35.301c0-5.226,3.47-8.875,8.471-8.875s8.561,3.649,8.561,8.875v14.733c0,5.181-3.56,8.831-8.561,8.831
      S251.566,55.215,251.566,50.035z M266.255,50.081V35.212c0-4.011-2.613-6.489-6.218-6.489c-3.47,0-6.172,2.389-6.172,6.489v14.869
      c0,4.055,2.613,6.487,6.172,6.487C263.506,56.568,266.255,54.18,266.255,50.081z"/>
  </g>
  <g fill="#fefefe">
    <path fill="inherit" d="M47.832,6.87c-1.884,0-3.655,0.733-4.988,2.065L19.971,31.808c-1.333,1.332-2.066,3.104-2.066,4.989
      c0,1.883,0.733,3.655,2.066,4.988l22.873,22.873c1.333,1.332,3.104,2.066,4.988,2.066s3.656-0.734,4.987-2.066l22.874-22.873
      l0.409,0.407l-0.409-0.407c1.333-1.333,2.067-3.104,2.067-4.988c0-1.885-0.734-3.657-2.067-4.989L52.819,8.935
      C51.488,7.603,49.716,6.87,47.832,6.87 M47.832,67.873c-2.102,0-4.204-0.801-5.804-2.399L19.155,42.6
      c-1.55-1.55-2.404-3.612-2.404-5.803c0-2.194,0.854-4.254,2.404-5.805L42.028,8.119c1.55-1.55,3.611-2.404,5.804-2.404
      s4.254,0.854,5.803,2.404l22.874,22.873c1.551,1.55,2.404,3.611,2.404,5.805c0,2.191-0.853,4.253-2.404,5.803L53.635,65.473
      C52.035,67.072,49.934,67.873,47.832,67.873"/>
    <path fill="inherit" d="M77.688,46.019l-0.836,0.836c0.585,1.033,0.891,2.202,0.885,3.421c0.006,1.885-0.726,3.655-2.06,4.989L52.803,78.139
      c-1.334,1.334-3.104,2.066-4.989,2.061c-1.885,0.006-3.651-0.732-4.983-2.065L19.949,55.265c-1.328-1.339-2.066-3.104-2.06-4.989
      c0-1.224,0.311-2.411,0.896-3.454l-0.842-0.842c-0.792,1.284-1.213,2.754-1.213,4.296c0.006,2.19,0.853,4.25,2.405,5.804
      L42.01,78.954c1.547,1.547,3.612,2.399,5.804,2.404c2.191-0.005,4.257-0.857,5.804-2.404L76.492,56.08
      C79.219,53.352,79.628,49.172,77.688,46.019 M53.617,21.597c-1.553-1.553-3.612-2.399-5.804-2.405
      c-2.192,0.006-4.251,0.853-5.804,2.405l-18.82,18.819l0.814,0.814l18.82-18.82c1.334-1.333,3.104-2.066,4.99-2.06
      c1.885-0.006,3.655,0.727,4.989,2.06l18.831,18.832l0.813-0.814L53.617,21.597z"/>
  </g>
</svg>
